<svg id="Layer_1" data-name="Layer 1" xmlns="http://www.w3.org/2000/svg" viewBox="0 0 43.09 42.9"><defs><style>.cls-1,.cls-2{fill:none;stroke:#6961ab;stroke-width:5.12px;}.cls-1{stroke-linecap:round;}</style></defs><g id="Group_139" data-name="Group 139"><path id="Rectangle_1" data-name="Rectangle 1" class="cls-1" d="M204.17,387.81l-6.08.06a12.15,12.15,0,0,1-12.29-12h0a12.15,12.15,0,0,1,12.07-12.23l18.58-.17" transform="translate(-183.22 -360.3)"/><path id="Rectangle_2" data-name="Rectangle 2" class="cls-1" d="M205.67,375.68l5.77-.05a12.14,12.14,0,0,1,12.28,12h0a12.15,12.15,0,0,1-12.06,12.23l-18.59.16" transform="translate(-183.22 -360.3)"/><path id="Vector_1" data-name="Vector 1" class="cls-2" d="M204.91,362.93l.34,37.63" transform="translate(-183.22 -360.3)"/><path id="Rectangle_7" data-name="Rectangle 7" class="cls-2" d="M185.77,373.31l.16,17.22a10.22,10.22,0,0,0,10.35,10.11l17.3-.15a10.24,10.24,0,0,0,10.17-10.3L223.59,373a10.22,10.22,0,0,0-10.35-10.11l-17.3.15A10.23,10.23,0,0,0,185.77,373.31Z" transform="translate(-183.22 -360.3)"/></g></svg>